<svg width="13" height="13" viewBox="0 0 13 13" fill="none" xmlns="http://www.w3.org/2000/svg">
<path d="M6.49995 0.0125008C2.9187 0.0125008 0.0124512 2.91875 0.0124512 6.5C0.0124512 10.0813 2.9187 12.9875 6.4812 12.9875C10.0437 12.9875 12.9687 10.0813 12.9875 6.5C12.9687 2.91875 10.0812 0.0312508 6.49995 0.0125008ZM6.49995 12.425C3.23745 12.425 0.574951 9.7625 0.574951 6.5C0.574951 3.2375 3.23745 0.575001 6.49995 0.575001C9.76245 0.575001 12.425 3.21875 12.425 6.48125C12.4062 9.7625 9.76245 12.4062 6.49995 12.425Z" fill="#1D203D"/>
<path d="M6.49995 1.79375C3.91245 1.79375 1.7937 3.89375 1.7937 6.5H2.3562C2.3562 4.2125 4.21245 2.35625 6.49995 2.35625V1.79375Z" fill="#1D203D"/>
<path d="M8.22498 4.38125L6.49998 6.10625L4.77498 4.38125L4.38123 4.775L6.10623 6.5L4.38123 8.225L4.77498 8.61875L6.49998 6.89375L8.22498 8.61875L8.61873 8.225L6.89373 6.5L8.61873 4.775L8.22498 4.38125Z" fill="#1D203D"/>
</svg>
