<svg width="52" height="71" viewBox="0 0 52 71" fill="none" xmlns="http://www.w3.org/2000/svg">
<path fill-rule="evenodd" clip-rule="evenodd" d="M41.5 2.59375H46.6876C48.1018 2.59375 49.2812 3.74974 49.2812 5.17572V64.8555C49.2812 66.2567 48.12 67.4375 46.6876 67.4375H7.78115C6.3669 67.4375 5.1875 66.2815 5.1875 64.8555V62.25H7.78125V59.6562H5.1875V51.875H7.78125V49.2812H5.1875V41.5H7.78125V38.9062H5.1875V31.125H7.78125V28.5312H5.1875V20.75H7.78125V18.1562H5.1875V10.375H7.78125V7.78125H5.1875V5.17572C5.1875 3.77459 6.34871 2.59375 7.78115 2.59375H25.9375V33.7188L33.7188 25.9375L41.5 33.7188V2.59375ZM2.59375 41.5V49.2812H0V51.875H2.59375V59.6562H0V62.25H2.59375V64.8247C2.59375 67.7002 4.90459 70.0312 7.77456 70.0312H46.6942C49.5555 70.0312 51.875 67.7012 51.875 64.8247V5.20651C51.875 2.33103 49.5642 0 46.6942 0H7.77456C4.91328 0 2.59375 2.33007 2.59375 5.20651V7.78125H0V10.375H2.59375V18.1562H0V20.75H2.59375V28.5312H0V31.125H2.59375V38.9062H0V41.5H2.59375ZM28.5312 2.59375V27.4937L33.7188 22.3062L38.9062 27.4937V2.59375H28.5312Z" fill="white"/>
</svg>
