<svg width="12" height="12" viewBox="0 0 12 12" fill="none" xmlns="http://www.w3.org/2000/svg">
<path d="M6.001 11.012C5.94837 11.0123 5.8962 11.0022 5.84747 10.9823C5.79875 10.9624 5.75443 10.9331 5.71706 10.896L1.10609 6.28413C1.0686 6.24695 1.03885 6.20271 1.01855 6.15397C0.998246 6.10522 0.987793 6.05294 0.987793 6.00014C0.987793 5.94734 0.998246 5.89506 1.01855 5.84631C1.03885 5.79757 1.0686 5.75333 1.10609 5.71615L1.71395 5.11217C2.03969 4.78357 2.45266 4.55509 2.90408 4.45373C3.35549 4.35238 3.82647 4.38238 4.26139 4.54018L6.42491 2.37625L6.04899 2.00026C5.97451 1.92532 5.9327 1.82394 5.9327 1.71827C5.9327 1.6126 5.97451 1.51122 6.04899 1.43627L7.3647 0.116314C7.43963 0.0418155 7.54099 0 7.64664 0C7.75229 0 7.85365 0.0418155 7.92857 0.116314L11.8837 4.0722C11.9582 4.14714 12 4.24852 12 4.35419C12 4.45986 11.9582 4.56124 11.8837 4.63618L10.564 5.95214C10.4891 6.02664 10.3877 6.06846 10.2821 6.06846C10.1764 6.06846 10.075 6.02664 10.0001 5.95214L9.6242 5.57615L7.46068 7.74009C7.61747 8.17522 7.64695 8.64604 7.54566 9.09733C7.44437 9.54863 7.21651 9.96167 6.8888 10.288L6.28494 10.896C6.24757 10.9331 6.20325 10.9624 6.15453 10.9823C6.10581 11.0022 6.05363 11.0123 6.001 11.012ZM1.9539 6.00014L6.001 10.048L6.32493 9.72403C6.56884 9.47956 6.72978 9.16462 6.78504 8.8237C6.84029 8.48278 6.78706 8.13311 6.63286 7.82409C6.59536 7.74949 6.58214 7.66503 6.59504 7.58254C6.60795 7.50005 6.64635 7.42367 6.70485 7.3641L9.34026 4.72818C9.37744 4.69069 9.42167 4.66093 9.4704 4.64062C9.51914 4.62032 9.57141 4.60986 9.6242 4.60986C9.67699 4.60986 9.72926 4.62032 9.778 4.64062C9.82673 4.66093 9.87096 4.69069 9.90814 4.72818L10.2841 5.10417L11.0359 4.35219L7.64864 0.964289L6.8968 1.71627L7.27272 2.09226C7.3102 2.12944 7.33995 2.17368 7.36026 2.22242C7.38056 2.27116 7.39101 2.32344 7.39101 2.37625C7.39101 2.42905 7.38056 2.48133 7.36026 2.53007C7.33995 2.57882 7.3102 2.62305 7.27272 2.66024L4.6373 5.29616C4.57775 5.35467 4.50138 5.39307 4.41891 5.40598C4.33643 5.4189 4.25199 5.40567 4.17741 5.36816C3.86844 5.21393 3.51884 5.16069 3.17799 5.21595C2.83713 5.27122 2.52225 5.4322 2.27783 5.67615L1.9539 6.00014Z" fill="#1D203D"/>
<path d="M0.40223 12C0.349599 12.0003 0.297426 11.9902 0.248702 11.9703C0.199977 11.9504 0.155661 11.9211 0.118293 11.884C0.08081 11.8468 0.0510589 11.8026 0.030756 11.7538C0.010453 11.7051 0 11.6528 0 11.6C0 11.5472 0.010453 11.4949 0.030756 11.4462C0.0510589 11.3974 0.08081 11.3532 0.118293 11.316L3.41356 8.02411C3.49007 7.95858 3.58847 7.92434 3.68912 7.92823C3.78977 7.93212 3.88525 7.97385 3.95647 8.04508C4.02769 8.11632 4.06941 8.21181 4.0733 8.31248C4.07719 8.41315 4.04295 8.51157 3.97744 8.58809L0.686167 11.884C0.6488 11.9211 0.604483 11.9504 0.555759 11.9703C0.507035 11.9902 0.454861 12.0003 0.40223 12Z" fill="#1D203D"/>
<path d="M9.62419 5.41215C9.57156 5.41246 9.51939 5.40237 9.47066 5.38246C9.42194 5.36256 9.37762 5.33323 9.34025 5.29616L8.35247 4.30819C8.31519 4.27089 8.28561 4.22662 8.26543 4.17789C8.24525 4.12916 8.23486 4.07694 8.23486 4.0242C8.23486 3.97145 8.24525 3.91923 8.26543 3.8705C8.28561 3.82177 8.31519 3.7775 8.35247 3.7402C8.38976 3.70291 8.43403 3.67333 8.48275 3.65314C8.53146 3.63296 8.58368 3.62257 8.63641 3.62257C8.68914 3.62257 8.74136 3.63296 8.79008 3.65314C8.83879 3.67333 8.88306 3.70291 8.92035 3.7402L9.90813 4.72817C9.94561 4.76536 9.97536 4.8096 9.99567 4.85834C10.016 4.90708 10.0264 4.95936 10.0264 5.01217C10.0264 5.06497 10.016 5.11725 9.99567 5.16599C9.97536 5.21474 9.94561 5.25897 9.90813 5.29616C9.87076 5.33323 9.82644 5.36256 9.77772 5.38246C9.729 5.40237 9.67682 5.41246 9.62419 5.41215Z" fill="#1D203D"/>
</svg>
