<?xml version="1.0" ?><svg style="enable-background:new 0 0 24 24;" version="1.1" viewBox="0 0 24 24" xml:space="preserve" xmlns="http://www.w3.org/2000/svg" xmlns:xlink="http://www.w3.org/1999/xlink"><g id="info"/><g id="icons"><g id="new"><path d="M17.5,8C16.1,8,15,6.9,15,5.5V2c0-0.6-0.4-1-1-1H6C3.8,1,2,2.8,2,5v14c0,2.2,1.8,4,4,4h12c2.2,0,4-1.8,4-4V9    c0-0.6-0.4-1-1-1H17.5z M14,17H8c-0.6,0-1-0.4-1-1c0-0.6,0.4-1,1-1h6c0.6,0,1,0.4,1,1C15,16.6,14.6,17,14,17z M16,13H8    c-0.6,0-1-0.4-1-1c0-0.6,0.4-1,1-1h8c0.6,0,1,0.4,1,1C17,12.6,16.6,13,16,13z"/></g></g></svg>