<?xml version="1.0" ?><svg style="enable-background:new 0 0 24 24;" version="1.1" viewBox="0 0 24 24" xml:space="preserve" xmlns="http://www.w3.org/2000/svg" xmlns:xlink="http://www.w3.org/1999/xlink"><style type="text/css">
	.st0{opacity:0.2;fill:none;stroke:#000000;stroke-width:5.000000e-02;stroke-miterlimit:10;}
</style><g id="grid_system"/><g id="_icons"><g><path d="M5,17.8c0.1,0,0.1,0,0.2,0l2.2-0.4c1-0.2,1.9-0.7,2.6-1.4L19.1,7C19.7,6.5,20,5.7,20,4.9c0-0.8-0.3-1.5-0.9-2.1    c-1.1-1.1-3-1.1-4.2,0l-9.1,8.9c-0.7,0.7-1.2,1.6-1.4,2.6L4,16.6c-0.1,0.3,0,0.7,0.3,0.9C4.5,17.7,4.7,17.8,5,17.8z M16.3,4.3    C16.5,4.1,16.8,4,17,4c0.3,0,0.5,0.1,0.7,0.3C17.9,4.5,18,4.7,18,4.9c0,0.1,0,0.4-0.3,0.7L17.3,6l-1.4-1.3L16.3,4.3z M6.4,14.8    c0.1-0.6,0.4-1.1,0.9-1.6l7.2-7.1l1.4,1.3l-7.2,7.1c-0.4,0.4-1,0.7-1.6,0.8l-0.8,0.2L6.4,14.8z"/><path d="M19,19H5c-0.6,0-1,0.4-1,1s0.4,1,1,1h14c0.6,0,1-0.4,1-1S19.6,19,19,19z"/></g></g></svg>